<svg width="14" height="14" viewBox="0 0 14 14" fill="none" xmlns="http://www.w3.org/2000/svg">
<g clip-path="url(#clip0_1037_16072)">
<path d="M11.0974 5.85482C10.6556 4.65711 9.71121 3.71334 8.5135 3.27091C6.25225 2.43644 3.7423 3.59292 2.90783 5.85482C1.77099 6.21283 0.998693 7.2672 1 8.45902C1.00197 9.96499 2.22389 11.185 3.72986 11.183C4.03093 11.183 4.27439 10.9389 4.27505 10.6378C4.27505 10.3367 4.03158 10.092 3.72986 10.092C3.01909 10.09 2.39013 9.6299 2.17415 8.9525C1.89927 8.0912 2.37508 7.16968 3.23638 6.8948L3.74557 6.7338L3.93079 6.23181C4.26261 5.33385 4.97011 4.6257 5.86807 4.29453C7.5645 3.66818 9.44745 4.53603 10.0731 6.23181L10.2584 6.7338L10.7675 6.8948C11.4502 7.10947 11.9149 7.74301 11.9129 8.45902C11.9109 9.36287 11.1773 10.0939 10.2734 10.092C9.97235 10.092 9.72888 10.3361 9.72823 10.6372C9.72823 10.9382 9.97169 11.183 10.2734 11.183C11.4607 11.181 12.5098 10.4127 12.8698 9.28106C13.3259 7.84511 12.532 6.311 11.0961 5.85482H11.0974Z" fill="#1776FF"/>
<path d="M9.5579 7.24305C9.35567 7.04081 9.02777 7.04081 8.82554 7.24305L6.73053 9.33806C6.67489 9.39369 6.58458 9.39369 6.52829 9.33806L5.53151 8.34127C5.32927 8.13904 5.00137 8.13904 4.79914 8.34127C4.5969 8.54351 4.5969 8.87141 4.79914 9.07364L6.26322 10.5377C6.46546 10.74 6.79336 10.74 6.99559 10.5377L9.5579 7.97542C9.76014 7.77318 9.76014 7.44528 9.5579 7.24305Z" fill="#1776FF"/>
</g>
<defs>
<clipPath id="clip0_1037_16072">
<rect width="12" height="8.18304" fill="white" transform="translate(1 3)"/>
</clipPath>
</defs>
</svg>
