<svg width="14" height="14" viewBox="0 0 14 14" fill="none" xmlns="http://www.w3.org/2000/svg">
<g clip-path="url(#clip0_1037_16083)">
<path d="M5.25 12.25H2.1875C1.46426 12.25 0.875 11.6607 0.875 10.9375V2.1875C0.875 1.46426 1.46426 0.875 2.1875 0.875H9.1875C9.91074 0.875 10.5 1.46426 10.5 2.1875V4.8125C10.5 5.05449 10.3045 5.25 10.0625 5.25C9.82051 5.25 9.625 5.05449 9.625 4.8125V2.1875C9.625 1.94687 9.42813 1.75 9.1875 1.75H2.1875C1.94687 1.75 1.75 1.94687 1.75 2.1875V10.9375C1.75 11.1781 1.94687 11.375 2.1875 11.375H5.25C5.49199 11.375 5.6875 11.5705 5.6875 11.8125C5.6875 12.0545 5.49199 12.25 5.25 12.25Z" fill="#1BB46D"/>
<path d="M9.40625 13.125C8.4123 13.125 7.47852 12.7381 6.77715 12.0354C6.07441 11.334 5.6875 10.4002 5.6875 9.40625C5.6875 8.4123 6.07441 7.47852 6.77715 6.77715C7.47852 6.07441 8.4123 5.6875 9.40625 5.6875C10.4002 5.6875 11.334 6.07441 12.0354 6.77715C12.7367 7.47988 13.125 8.41367 13.125 9.40625C13.125 10.4002 12.7381 11.334 12.0354 12.0354C11.3326 12.7367 10.4002 13.125 9.40625 13.125ZM9.40625 6.5625C7.83809 6.5625 6.5625 7.83809 6.5625 9.40625C6.5625 10.9744 7.83809 12.25 9.40625 12.25C10.9744 12.25 12.25 10.9744 12.25 9.40625C12.25 7.83809 10.9744 6.5625 9.40625 6.5625Z" fill="#1BB46D"/>
<path d="M8.3125 4.375H3.0625C2.82051 4.375 2.625 4.17949 2.625 3.9375C2.625 3.69551 2.82051 3.5 3.0625 3.5H8.3125C8.55449 3.5 8.75 3.69551 8.75 3.9375C8.75 4.17949 8.55449 4.375 8.3125 4.375Z" fill="#1BB46D"/>
<path d="M5.25 7H3.0625C2.82051 7 2.625 6.80449 2.625 6.5625C2.625 6.32051 2.82051 6.125 3.0625 6.125H5.25C5.49199 6.125 5.6875 6.32051 5.6875 6.5625C5.6875 6.80449 5.49199 7 5.25 7Z" fill="#1BB46D"/>
<path d="M4.375 9.625H3.0625C2.82051 9.625 2.625 9.42949 2.625 9.1875C2.625 8.94551 2.82051 8.75 3.0625 8.75H4.375C4.61699 8.75 4.8125 8.94551 4.8125 9.1875C4.8125 9.42949 4.61699 9.625 4.375 9.625Z" fill="#1BB46D"/>
<path d="M9.62494 10.9375C9.53881 10.9375 9.45405 10.9129 9.38159 10.8637L8.06909 9.98868C7.86811 9.8547 7.81342 9.58263 7.94741 9.38165C8.08139 9.18068 8.35346 9.12599 8.55444 9.25997L9.48549 9.88068L10.5615 8.08692C10.6859 7.87911 10.9552 7.81212 11.1617 7.93653C11.3695 8.06095 11.4365 8.32892 11.3121 8.53673L9.99955 10.7242C9.93803 10.8268 9.83686 10.8992 9.72065 10.9266C9.6892 10.9348 9.65639 10.9375 9.62494 10.9375Z" fill="#1BB46D"/>
</g>
<defs>
<clipPath id="clip0_1037_16083">
<rect width="14" height="14" fill="white"/>
</clipPath>
</defs>
</svg>
