<svg xmlns="http://www.w3.org/2000/svg" width="14" height="14" viewBox="0 0 14 14" fill="">
  <path d="M12.1548 3.50022H6.72977L6.43524 2.58485C6.32427 2.23694 6.00035 2 5.63504 2H1.84519C1.37851 2 1 2.37851 1 2.84519V10.9048C1 11.3715 1.37851 11.75 1.84519 11.75H12.1548C12.6215 11.75 13 11.3715 13 10.9048V4.34481C13 3.87813 12.6215 3.50022 12.1548 3.50022ZM1.84519 2.84519H5.63504L5.84499 3.50022H1.84519V2.84519ZM9.44889 9.83884C9.44889 9.97381 9.33912 10.0836 9.20415 10.0836H8.22459C8.08903 10.0836 7.97926 9.97381 7.97926 9.83884V8.85928C7.97926 8.72372 8.08903 8.61455 8.22459 8.61455H8.46933V8.12447C8.46933 8.0003 8.37636 7.89593 8.25279 7.88153L8.22459 7.87973H5.77541L5.74661 7.88153C5.62364 7.89593 5.53067 8.0003 5.53067 8.12447V8.61455H5.77541C5.89958 8.61455 6.00395 8.70752 6.01895 8.83049L6.02014 8.85928V9.83884C6.02014 9.97381 5.91097 10.0836 5.77541 10.0836H4.79585C4.66088 10.0836 4.55111 9.97381 4.55111 9.83884V8.85928C4.55111 8.72372 4.66088 8.61455 4.79585 8.61455H5.04119V8.12447L5.04239 8.08128C5.06518 7.69318 5.3867 7.38965 5.77541 7.38965H6.75496V6.65544H6.02014C5.89658 6.65544 5.7916 6.56246 5.77721 6.43889L5.77541 6.4101V5.43054C5.77541 5.29558 5.88518 5.1858 6.02014 5.1858H7.97926C8.11482 5.1858 8.22459 5.29558 8.22459 5.43054V6.4101C8.22459 6.54566 8.11482 6.65544 7.97926 6.65544H7.24504V7.38965H8.22459C8.6133 7.38965 8.93482 7.69318 8.95761 8.08128L8.95881 8.12447V8.61455H9.20415C9.32832 8.61455 9.43269 8.70752 9.44709 8.83049L9.44889 8.85928V9.83884Z" fill="#1776FF"/>
</svg>