<svg xmlns="http://www.w3.org/2000/svg" width="14" height="14" viewBox="0 0 14 14" fill="">
<g clip-path="url(#clip0_1031_13977)">
<path fill-rule="evenodd" clip-rule="evenodd" d="M11.5934 4.44792H12.6146C12.8953 4.44792 13.125 4.21823 13.125 3.9375C13.125 3.65677 12.8953 3.42708 12.6146 3.42708H10.0625V2.40625C10.0625 1.56202 9.37548 0.875 8.53125 0.875H5.46875C4.62452 0.875 3.9375 1.56202 3.9375 2.40625V3.42708H1.38542C1.10469 3.42708 0.875 3.65677 0.875 3.9375C0.875 4.21823 1.10469 4.44792 1.38542 4.44792H2.4212V11.6091C2.4212 12.4452 3.10159 13.125 3.93714 13.125H10.0775C10.9135 13.125 11.5934 12.4452 11.5934 11.6091V4.44792ZM9.04167 3.42708H4.95833V2.40625C4.95833 2.12501 5.18751 1.89583 5.46875 1.89583H8.53125C8.813 1.89583 9.04167 2.12501 9.04167 2.40625V3.42708ZM4.95833 10.0625C4.95833 10.3432 5.18802 10.5729 5.46875 10.5729C5.74948 10.5729 5.97917 10.3432 5.97917 10.0625V6.48958C5.97917 6.20885 5.74948 5.97917 5.46875 5.97917C5.18802 5.97917 4.95833 6.20885 4.95833 6.48958V10.0625ZM8.02083 10.0625C8.02083 10.3432 8.25052 10.5729 8.53125 10.5729C8.81198 10.5729 9.04167 10.3432 9.04167 10.0625V6.48958C9.04167 6.20885 8.81198 5.97917 8.53125 5.97917C8.25052 5.97917 8.02083 6.20885 8.02083 6.48958V10.0625ZM3.44204 11.6091V4.44795H10.5726V11.6091C10.5726 11.8822 10.351 12.1042 10.0775 12.1042H3.93714C3.80587 12.1041 3.68002 12.0519 3.5872 11.959C3.49438 11.8662 3.44217 11.7404 3.44204 11.6091Z" fill=""/>
</g>
<defs>
<clipPath id="clip0_1031_13977">
<rect width="14" height="14" fill=""/>
</clipPath>
</defs>
</svg>