<svg xmlns="http://www.w3.org/2000/svg" width="21" height="20" viewBox="0 0 21 20" fill="">
<path d="M17.1177 16.4004H5.9165C5.47705 16.4004 5.11572 16.041 5.11572 15.5996C5.11572 15.1602 5.4751 14.7988 5.9165 14.7988H17.1157C17.5552 14.7988 17.9165 15.1582 17.9165 15.5996C17.9165 16.0391 17.5571 16.4004 17.1177 16.4004Z" fill=""/>
<path d="M2.31689 16.4004C1.87549 16.4004 1.51611 16.043 1.51611 15.5996V2.80078C1.51611 1.47656 2.59229 0.400391 3.9165 0.400391H16.7173C18.0415 0.400391 19.1177 1.47656 19.1177 2.80078V12.4004C19.1177 12.8418 18.7603 13.2012 18.3169 13.2012C17.8735 13.2012 17.5161 12.8438 17.5161 12.4004V2.80078C17.5161 2.35937 17.1567 2 16.7153 2H3.9165C3.4751 2 3.11572 2.35937 3.11572 2.80078V15.6016C3.11768 16.041 2.7583 16.4004 2.31689 16.4004Z" fill=""/>
<path d="M10.3169 8.40039C9.87744 8.40039 9.51611 8.04102 9.51611 7.59961V2C9.51611 1.56055 9.87549 1.19922 10.3169 1.19922C10.7563 1.19922 11.1177 1.55859 11.1177 2V7.59961C11.1177 8.03906 10.7563 8.40039 10.3169 8.40039ZM14.8384 8.40039C14.3989 8.40039 14.0376 8.04102 14.0376 7.59961V2C14.0376 1.56055 14.397 1.19922 14.8384 1.19922C15.2778 1.19922 15.6392 1.55859 15.6392 2V7.59961C15.6392 8.03906 15.2778 8.40039 14.8384 8.40039Z" fill=""/>
<path d="M13.145 5.9043L10.8813 8.16602C10.5708 8.47656 10.061 8.47656 9.75049 8.16602C9.43994 7.85547 9.43994 7.3457 9.75049 7.03516L12.0142 4.77148C12.3247 4.46094 12.8345 4.46094 13.145 4.77148C13.4556 5.08398 13.4556 5.59375 13.145 5.9043Z" fill=""/>
<path d="M14.2739 8.16602L12.0103 5.9043C11.6997 5.59375 11.6997 5.08398 12.0103 4.77344C12.3208 4.46289 12.8306 4.46289 13.1411 4.77344L15.4048 7.03711C15.7153 7.34766 15.7153 7.85742 15.4048 8.16797C15.0942 8.47852 14.5845 8.47852 14.2739 8.16602ZM18.3169 19.5996H5.51611C3.31104 19.5996 1.51611 17.8047 1.51611 15.5996C1.51611 13.3945 3.31104 11.5996 5.51611 11.5996H18.3169C18.7583 11.5996 19.1177 11.957 19.1177 12.4004C19.1177 12.8438 18.7603 13.2012 18.3169 13.2012H5.51611C4.19189 13.2012 3.11572 14.2773 3.11572 15.6016C3.11572 16.9258 4.19189 18.002 5.51611 18.002H18.3169C18.7583 18.002 19.1177 18.3594 19.1177 18.8027C19.1177 19.2461 18.7583 19.5996 18.3169 19.5996Z" fill=""/>
</svg>