<svg width="14" height="14" viewBox="0 0 14 14" fill="none" xmlns="http://www.w3.org/2000/svg">
<path d="M9.6357 1.1261H3.9444C3.51222 1.1261 3.15918 1.47914 3.15918 1.91132V12.0887C3.15918 12.5209 3.51222 12.8739 3.9444 12.8739H11.4009C11.8331 12.8739 12.1861 12.5209 12.1861 12.0887V3.67653L9.6357 1.1261Z" fill="#E6F4FF"/>
<path d="M9.63541 2.89132C9.63541 3.32349 9.98846 3.67653 10.4206 3.67653H12.1858L9.63541 1.1261V2.89132ZM4.66846 2.95827H8.39367V3.48175H4.66846V2.95827ZM4.66846 4.11479H8.39367V4.63827H4.66846V4.11479ZM4.66846 5.27132H9.6415V5.79479H4.66846V5.27132ZM4.66846 6.42175H10.7493V6.94523H4.66846V6.42175Z" fill="#1776FF"/>
<path d="M6.86005 11.4009H2.24614C2.00875 11.4009 1.81396 11.2183 1.81396 10.9931V9.00872C1.81396 8.7835 2.00875 8.60089 2.24614 8.60089H6.85396C7.09136 8.60089 7.28614 8.7835 7.28614 9.00872V10.987C7.29223 11.2183 7.09744 11.4009 6.86005 11.4009Z" fill="#1776FF"/>
<path d="M2.79412 10.4939V10.9078H2.41064V10.4939H2.79412ZM4.07238 8.88696V10.9078H3.56717V10.7861C3.51847 10.8348 3.46977 10.8713 3.41499 10.8957C3.36021 10.92 3.30543 10.9322 3.25064 10.9322C3.17151 10.9322 3.10456 10.9139 3.04977 10.8713C2.99499 10.8287 2.95847 10.78 2.94021 10.7313C2.92195 10.6826 2.91586 10.5913 2.91586 10.4696V9.69653C2.91586 9.5687 2.92195 9.4774 2.94021 9.42262C2.95847 9.36783 2.99499 9.32522 3.04977 9.28262C3.10456 9.24001 3.1776 9.22175 3.25673 9.22175C3.3176 9.22175 3.37847 9.23392 3.42717 9.25827C3.47586 9.28262 3.52456 9.31305 3.56717 9.36175V8.88696H4.07238ZM3.57325 9.66609C3.57325 9.60522 3.56717 9.56262 3.55499 9.54435C3.54282 9.52609 3.52456 9.51392 3.49412 9.51392C3.46369 9.51392 3.44543 9.52609 3.43325 9.54435C3.42108 9.56262 3.41499 9.60522 3.41499 9.67218V10.4817C3.41499 10.5487 3.42108 10.5913 3.42717 10.6157C3.43325 10.64 3.4576 10.6461 3.48195 10.6461C3.51238 10.6461 3.53673 10.6339 3.54891 10.6096C3.56108 10.5852 3.56717 10.5304 3.56717 10.433V9.66609H3.57325ZM5.39934 9.83044V10.2383C5.39934 10.3844 5.39325 10.4939 5.37499 10.567C5.35673 10.64 5.3263 10.7009 5.2776 10.7617C5.22891 10.8226 5.16804 10.8652 5.08891 10.8957C5.00978 10.9261 4.92456 10.9383 4.82108 10.9383C4.71151 10.9383 4.61412 10.9261 4.53499 10.9017C4.45586 10.8774 4.39499 10.8409 4.35238 10.7922C4.30977 10.7435 4.27934 10.6826 4.26108 10.6096C4.24282 10.5365 4.23064 10.433 4.23064 10.293V9.86696C4.23064 9.71479 4.24891 9.59305 4.27934 9.50783C4.30977 9.42262 4.37064 9.34957 4.46195 9.30088C4.55325 9.25218 4.65673 9.22175 4.79673 9.22175C4.91238 9.22175 5.00978 9.24001 5.08891 9.27044C5.16804 9.30088 5.23499 9.34957 5.2776 9.40435C5.32021 9.45914 5.35064 9.51392 5.36891 9.5687C5.38717 9.62348 5.39934 9.71479 5.39934 9.83044ZM4.89412 9.7087C4.89412 9.62348 4.88804 9.5687 4.88195 9.55044C4.87586 9.53218 4.85151 9.52001 4.82108 9.52001C4.79064 9.52001 4.77238 9.53218 4.76021 9.55044C4.74804 9.5687 4.74804 9.62348 4.74804 9.7087V10.4574C4.74804 10.5365 4.75412 10.5852 4.76021 10.6096C4.7663 10.6339 4.79064 10.6461 4.82108 10.6461C4.85151 10.6461 4.86978 10.6339 4.88195 10.6157C4.89412 10.5974 4.89412 10.5487 4.89412 10.4757V9.7087ZM6.6776 9.87305H6.20282V9.68435C6.20282 9.6174 6.19673 9.57479 6.18456 9.55044C6.17238 9.52609 6.15412 9.51392 6.12369 9.51392C6.09325 9.51392 6.07499 9.52609 6.06282 9.54435C6.05064 9.56262 6.05064 9.61131 6.05064 9.68435V10.4635C6.05064 10.5244 6.05673 10.567 6.07499 10.5974C6.09325 10.6278 6.11151 10.64 6.14195 10.64C6.17847 10.64 6.19673 10.6217 6.20891 10.5913C6.22108 10.5609 6.22717 10.5 6.22717 10.4148V10.2261H6.6776C6.6776 10.36 6.67151 10.4574 6.66543 10.5244C6.65934 10.5913 6.62891 10.6583 6.58021 10.7252C6.53151 10.7922 6.47064 10.847 6.3976 10.8835C6.32456 10.92 6.22717 10.9383 6.1176 10.9383C5.9776 10.9383 5.86195 10.9139 5.77673 10.8652C5.69151 10.8165 5.63673 10.7496 5.60021 10.6583C5.56369 10.567 5.54543 10.4452 5.54543 10.287V9.81827C5.54543 9.67827 5.5576 9.5687 5.58804 9.50175C5.61847 9.43479 5.67934 9.36783 5.77064 9.31305C5.86195 9.25827 5.9776 9.22783 6.10543 9.22783C6.23934 9.22783 6.34891 9.25827 6.44021 9.31305C6.53151 9.36783 6.59238 9.44088 6.62891 9.52609C6.66543 9.61131 6.6776 9.72088 6.6776 9.87305Z" fill="white"/>
</svg>
