<svg width="14" height="14" viewBox="0 0 14 14" fill="none" xmlns="http://www.w3.org/2000/svg">
<path d="M11.642 13H2.80191C2.36277 13 2 12.6372 2 12.1981V3.39618C2 2.95704 2.36277 2.59427 2.80191 2.59427H3.20286V3.79714C3.20286 4.23628 3.56563 4.59905 4.00477 4.59905H10.4296C10.8687 4.59905 11.2315 4.23628 11.2315 3.79714V2.59427H11.6325C12.0716 2.59427 12.4344 2.95704 12.4344 3.39618V12.1981C12.4439 12.6372 12.0811 13 11.642 13ZM9.84726 7.55847C9.60859 7.32936 9.22673 7.32936 8.98807 7.55847L6.84009 9.60143L5.83771 8.64678C5.59904 8.41766 5.21718 8.41766 4.97852 8.64678C4.73986 8.87589 4.73986 9.23866 4.97852 9.45823L6.4105 10.8138C6.64916 11.043 7.03103 11.043 7.26969 10.8138L9.84726 8.36993C10.0859 8.15036 10.0859 7.78759 9.84726 7.55847ZM9.22673 3.79714H5.21718C4.77804 3.79714 4.41527 3.43437 4.41527 2.99523V2.59427C6.01909 1.42005 6.03819 1.40095 6.45823 1H8.05251C8.44391 1.37232 8.43437 1.42005 10.0286 2.59427V2.99523C10.0286 3.44391 9.67542 3.79714 9.22673 3.79714ZM7.22196 1.80191C6.78282 1.80191 6.42005 2.16468 6.42005 2.60382C6.42005 3.04296 6.78282 3.40573 7.22196 3.40573C7.6611 3.40573 8.02387 3.04296 8.02387 2.60382C8.02387 2.15513 7.6611 1.80191 7.22196 1.80191Z" fill="#1776FF"/>
</svg>
