<svg width="14" height="14" viewBox="0 0 14 14" fill="none" xmlns="http://www.w3.org/2000/svg">
<path d="M9.6357 1.1261H3.9444C3.51222 1.1261 3.15918 1.47914 3.15918 1.91132V12.0887C3.15918 12.5209 3.51222 12.8739 3.9444 12.8739H11.4009C11.8331 12.8739 12.1861 12.5209 12.1861 12.0887V3.67653L9.6357 1.1261Z" fill="#FFE6E5"/>
<path d="M9.63574 2.89132C9.63574 3.32349 9.98879 3.67653 10.421 3.67653H12.1862L9.63574 1.1261V2.89132Z" fill="#E31430"/>
<path d="M6.86005 11.4009H2.24614C2.00875 11.4009 1.81396 11.2183 1.81396 10.9931V9.00872C1.81396 8.7835 2.00875 8.60089 2.24614 8.60089H6.85396C7.09136 8.60089 7.28614 8.7835 7.28614 9.00872V10.987C7.29223 11.2183 7.09744 11.4009 6.86005 11.4009Z" fill="#E31430"/>
<path d="M3.04363 10.4939V10.9078H2.66016V10.4939H3.04363ZM3.69494 9.25216L3.68885 9.39825C3.73146 9.33738 3.78624 9.29477 3.83494 9.26434C3.88972 9.2339 3.95059 9.22173 4.01146 9.22173C4.09059 9.22173 4.15755 9.23999 4.21233 9.2826C4.26711 9.32521 4.30363 9.3739 4.3219 9.42869C4.34016 9.48347 4.34016 9.57477 4.34016 9.70869V10.4087C4.34016 10.5609 4.33407 10.6643 4.31581 10.7313C4.29755 10.7983 4.26103 10.8469 4.20624 10.8835C4.15146 10.92 4.0845 10.9383 4.00537 10.9383C3.9445 10.9383 3.88363 10.9261 3.82885 10.8956C3.77407 10.8652 3.72537 10.8226 3.68277 10.7678V11.1452H3.17755V9.25216H3.69494ZM3.83494 9.73303C3.83494 9.62956 3.82885 9.56869 3.82277 9.54434C3.81668 9.51999 3.79233 9.5139 3.7619 9.5139C3.73146 9.5139 3.70711 9.52608 3.69494 9.55042C3.68276 9.57477 3.68277 9.63564 3.68277 9.73303V10.4209C3.68277 10.5183 3.68885 10.5852 3.69494 10.6096C3.70103 10.6339 3.72537 10.6461 3.7619 10.6461C3.79233 10.6461 3.81668 10.6339 3.82277 10.6096C3.82885 10.5852 3.83494 10.5304 3.83494 10.4452V9.73303ZM5.65494 8.88695V10.9078H5.14972V10.7861C5.10103 10.8348 5.05233 10.8713 4.99755 10.8956C4.94276 10.92 4.88798 10.9322 4.8332 10.9322C4.75407 10.9322 4.68711 10.9139 4.63233 10.8713C4.57755 10.8287 4.54103 10.78 4.52276 10.7313C4.5045 10.6826 4.49842 10.5913 4.49842 10.4696V9.69651C4.49842 9.56869 4.5045 9.47738 4.52276 9.4226C4.54103 9.36782 4.57755 9.32521 4.63233 9.2826C4.68711 9.23999 4.76016 9.22173 4.83929 9.22173C4.90016 9.22173 4.96103 9.2339 5.00972 9.25825C5.05842 9.2826 5.10711 9.31303 5.14972 9.36173V8.88695H5.65494ZM5.14972 9.66608C5.14972 9.60521 5.14363 9.5626 5.13146 9.54434C5.11929 9.52608 5.10103 9.5139 5.07059 9.5139C5.04016 9.5139 5.0219 9.52608 5.00972 9.54434C4.99755 9.5626 4.99146 9.60521 4.99146 9.67216V10.4817C4.99146 10.5487 4.99755 10.5913 5.00363 10.6156C5.00972 10.64 5.03407 10.6461 5.05842 10.6461C5.08885 10.6461 5.1132 10.6339 5.12537 10.6096C5.13755 10.5852 5.14363 10.5304 5.14363 10.433V9.66608H5.14972ZM6.47668 8.88695V9.1426C6.3732 9.1426 6.31233 9.14869 6.29407 9.15477C6.27581 9.16086 6.26363 9.19129 6.26363 9.2339V9.28869H6.47668V9.55042H6.35494V10.9078H5.84972V9.55042H5.74624V9.28869H5.84972C5.84972 9.17912 5.85581 9.10608 5.8619 9.06956C5.86798 9.03303 5.88624 9.0026 5.91668 8.97216C5.94711 8.94173 5.98972 8.92347 6.03842 8.90521C6.08711 8.88695 6.17233 8.88086 6.28798 8.88086H6.47668V8.88695Z" fill="white"/>
<path d="M8.02846 5.95913C7.73628 5.93478 7.45628 5.8313 7.22498 5.63652C6.78063 5.73391 6.35454 5.87391 5.93454 6.05043C5.59976 6.64696 5.28324 6.9513 5.01541 6.9513C4.96063 6.9513 4.89367 6.93913 4.85107 6.9087C4.72933 6.85391 4.66846 6.73217 4.66846 6.61652C4.66846 6.51913 4.6928 6.24522 5.7215 5.80087C5.95889 5.3687 6.14759 4.92435 6.29367 4.45565C6.16585 4.19391 5.87976 3.55478 6.07454 3.23217C6.1415 3.11043 6.26933 3.04957 6.40933 3.05565C6.51889 3.05565 6.62846 3.11044 6.68933 3.19565C6.82933 3.39044 6.81715 3.80435 6.63454 4.41304C6.81107 4.73565 7.03628 5.03391 7.30411 5.28348C7.52933 5.24087 7.76063 5.21043 7.98585 5.21043C8.49715 5.22261 8.5702 5.46 8.55802 5.6C8.5702 5.95913 8.21107 5.95913 8.02846 5.95913ZM4.99107 6.63478L5.0215 6.62261C5.17367 6.56783 5.29541 6.45826 5.38063 6.31826C5.21628 6.38522 5.08846 6.4887 4.99107 6.63478ZM6.43367 3.37826H6.40324C6.39107 3.37826 6.3728 3.37826 6.36063 3.39043C6.31802 3.57304 6.34846 3.76783 6.42759 3.94435C6.48846 3.75565 6.48846 3.56087 6.43367 3.37826ZM6.50672 4.9487L6.49454 4.97304L6.48237 4.96087C6.38498 5.21043 6.27541 5.46 6.15976 5.69739L6.18411 5.68522V5.70957C6.4215 5.62435 6.68324 5.54522 6.92063 5.49044L6.90846 5.47826H6.93889C6.78063 5.32 6.62846 5.13739 6.50672 4.9487ZM7.98585 5.52696C7.88846 5.52696 7.80324 5.52696 7.70585 5.5513C7.81541 5.60609 7.92498 5.62435 8.02846 5.63652C8.1015 5.6487 8.18063 5.63652 8.24759 5.61217C8.24759 5.58174 8.20498 5.52696 7.98585 5.52696Z" fill="#E31430"/>
</svg>
