<svg xmlns="http://www.w3.org/2000/svg" width="20" height="20" viewBox="0 0 20 20" fill="none">
<path d="M5.3125 3.82812H14.6875C15.5505 3.82812 16.25 4.5277 16.25 5.39062V14.7656C16.25 15.6286 15.5505 16.3281 14.6875 16.3281H5.3125C4.44957 16.3281 3.75 15.6286 3.75 14.7656V5.39062C3.75 4.5277 4.44957 3.82812 5.3125 3.82812Z" fill="#FFEBBB"/>
<path d="M6.25 7.26562C6.25 7.51427 6.34877 7.75272 6.52459 7.92854C6.7004 8.10435 6.93886 8.20312 7.1875 8.20312C7.43614 8.20312 7.6746 8.10435 7.85041 7.92854C8.02623 7.75272 8.125 7.51427 8.125 7.26562C8.125 7.01698 8.02623 6.77853 7.85041 6.60271C7.6746 6.4269 7.43614 6.32813 7.1875 6.32812C6.93886 6.32813 6.7004 6.4269 6.52459 6.60271C6.34877 6.77853 6.25 7.01698 6.25 7.26562Z" fill="#FE9E17"/>
<path d="M6.88875 11.9511C6.99684 11.7644 7.23578 11.7006 7.4225 11.8087C7.4816 11.8429 7.53069 11.892 7.56488 11.9511L9.03578 14.4918C9.14387 14.6785 9.08012 14.9175 8.8934 15.0256C8.83394 15.06 8.76645 15.0781 8.69773 15.0781H5.75582C5.54012 15.0781 5.3652 14.9032 5.36523 14.6875C5.36523 14.6188 5.38336 14.5513 5.41777 14.4918L6.88875 11.9511Z" fill="#FE9E17"/>
<path d="M10.9902 9.40924C11.0986 9.22271 11.3377 9.15939 11.5243 9.26783C11.5829 9.30189 11.6316 9.35063 11.6657 9.40924L14.6196 14.4913C14.728 14.6778 14.6648 14.9169 14.4782 15.0253C14.4186 15.06 14.3509 15.0782 14.282 15.0782H8.37402C8.15828 15.0782 7.9834 14.9033 7.9834 14.6876C7.9834 14.6186 8.00164 14.5509 8.03629 14.4913L10.9902 9.40924Z" fill="#FE9E17"/>
</svg>