<svg xmlns="http://www.w3.org/2000/svg" width="18" height="18" viewBox="0 0 18 18" fill="">
  <path d="M12.8169 4.02344C12.8169 4.71379 12.2572 5.27344 11.5669 5.27344C10.8765 5.27344 10.3169 4.71379 10.3169 4.02344C10.3169 3.33309 10.8765 2.77344 11.5669 2.77344C12.2572 2.77344 12.8169 3.33309 12.8169 4.02344ZM13.9006 3.125C13.5397 2.18816 12.6309 1.52344 11.5669 1.52344C10.1862 1.52344 9.06689 2.64273 9.06689 4.02344C9.06689 5.40414 10.1862 6.52344 11.5669 6.52344C12.7736 6.52344 13.7806 5.66848 14.0153 4.53125H17.6606V10.7227H11.5669C11.5255 10.7227 11.4857 10.7391 11.4564 10.7684C11.4271 10.7977 11.4106 10.8375 11.4106 10.8789V11.9727C11.4106 12.0141 11.4271 12.0538 11.4564 12.0831C11.4857 12.1124 11.5255 12.1289 11.5669 12.1289H18.4419C18.7871 12.1289 19.0669 11.8491 19.0669 11.5039V3.75C19.0669 3.40482 18.7871 3.125 18.4419 3.125H13.9006ZM7.81689 11.25C7.81689 11.9404 7.25725 12.5 6.56689 12.5C5.87654 12.5 5.31689 11.9404 5.31689 11.25C5.31689 10.5596 5.87654 10 6.56689 10C7.25725 10 7.81689 10.5596 7.81689 11.25ZM4.22576 12.1289C4.50984 12.8853 5.14992 13.4674 5.94189 13.6712V15.625C5.94189 15.9702 6.22172 16.25 6.56689 16.25H14.2486C14.6195 17.1662 15.5177 17.8125 16.5669 17.8125C17.9476 17.8125 19.0669 16.6932 19.0669 15.3125C19.0669 13.9318 17.9476 12.8125 16.5669 12.8125C15.3464 12.8125 14.3302 13.6871 14.1108 14.8438H7.34814V13.6255C8.34625 13.2974 9.06689 12.3579 9.06689 11.25C9.06689 9.8693 7.9476 8.75 6.56689 8.75C5.36709 8.75 4.36471 9.59519 4.12262 10.7227H2.97314V4.53125H6.56689C6.60833 4.53125 6.64808 4.51479 6.67738 4.48549C6.70668 4.45618 6.72314 4.41644 6.72314 4.375V3.28125C6.72314 3.23981 6.70668 3.20007 6.67738 3.17076C6.64808 3.14146 6.60833 3.125 6.56689 3.125H2.19189C1.84672 3.125 1.56689 3.40482 1.56689 3.75V11.5039C1.56689 11.8491 1.84672 12.1289 2.19189 12.1289H4.22576ZM16.5669 16.5625C17.2572 16.5625 17.8169 16.0029 17.8169 15.3125C17.8169 14.6221 17.2572 14.0625 16.5669 14.0625C15.8765 14.0625 15.3169 14.6221 15.3169 15.3125C15.3169 16.0029 15.8765 16.5625 16.5669 16.5625Z" fill=""/>
</svg>