<svg xmlns="http://www.w3.org/2000/svg" width="20" height="20" viewBox="0 0 20 20" fill="none">
<path d="M5.45117 3.88892H14.8262C15.6891 3.88892 16.3887 4.58849 16.3887 5.45142V14.8264C16.3887 15.6894 15.6891 16.3889 14.8262 16.3889H5.45117C4.58824 16.3889 3.88867 15.6894 3.88867 14.8264V5.45142C3.88867 4.58849 4.58824 3.88892 5.45117 3.88892Z" fill="#BBE8CC"/>
<path d="M9.4809 13.9498H11.0754C11.1667 13.9498 11.2405 13.8759 11.2405 13.7846V12.1942C11.2405 12.1029 11.1667 12.029 11.0754 12.029H9.4809C9.38959 12.029 9.31571 12.1029 9.31571 12.1942V13.7835C9.31571 13.8759 9.38959 13.9498 9.4809 13.9498ZM6.83272 11.3057H8.42717C8.51849 11.3057 8.59236 11.2318 8.59236 11.1405V9.53989C8.59236 9.44857 8.51849 9.3747 8.42717 9.3747H6.83272C6.7414 9.3747 6.66753 9.44857 6.66753 9.53989V11.1405C6.6665 11.2318 6.7414 11.3057 6.83272 11.3057ZM9.4809 11.3057H11.0754C11.1667 11.3057 11.2405 11.2318 11.2405 11.1405V9.53989C11.2405 9.44857 11.1667 9.3747 11.0754 9.3747H9.4809C9.38959 9.3747 9.31571 9.44857 9.31571 9.53989V11.1405C9.31571 11.2318 9.38959 11.3057 9.4809 11.3057ZM8.42717 12.028H6.83272C6.7414 12.028 6.66753 12.1019 6.66753 12.1932V13.7825C6.66753 13.8738 6.7414 13.9477 6.83272 13.9477H8.42717C8.51849 13.9477 8.59236 13.8738 8.59236 13.7825V12.1942C8.59339 12.1029 8.51849 12.028 8.42717 12.028ZM12.1301 13.9498H13.7235C13.8149 13.9498 13.8887 13.8759 13.8887 13.7846V12.1942C13.8887 12.1029 13.8149 12.029 13.7235 12.029H12.1301C12.0388 12.029 11.9649 12.1029 11.9649 12.1942V13.7835C11.9639 13.8759 12.0388 13.9498 12.1301 13.9498ZM6.6665 6.89273V8.48615C6.6665 8.57747 6.74038 8.65134 6.83169 8.65134H13.7225C13.8138 8.65134 13.8877 8.57747 13.8877 8.48615V6.89273C13.8877 6.80141 13.8138 6.72754 13.7225 6.72754H6.83272C6.7414 6.72754 6.6665 6.80141 6.6665 6.89273ZM12.1301 11.3057H13.7235C13.8149 11.3057 13.8887 11.2318 13.8887 11.1405V9.53989C13.8887 9.44857 13.8149 9.3747 13.7235 9.3747H12.1301C12.0388 9.3747 11.9649 9.44857 11.9649 9.53989V11.1405C11.9639 11.2318 12.0388 11.3057 12.1301 11.3057Z" fill="#1BB46D"/>
</svg>