<svg xmlns="http://www.w3.org/2000/svg" width="18" height="18" viewBox="0 0 18 18" fill="">
<path d="M15.7619 3.22503H14.5469V3.11103C14.5469 2.30803 13.8939 1.65503 13.0909 1.65503H7.74794C6.94494 1.65503 6.29194 2.30803 6.29194 3.11103V3.22503H5.07694C3.84094 3.22503 2.83594 4.23103 2.83594 5.46703V16.152C2.83594 17.388 3.84094 18.394 5.07694 18.394H15.7619C16.9979 18.394 18.0039 17.388 18.0039 16.152V5.46703C18.0039 4.23103 16.9979 3.22503 15.7619 3.22503ZM7.69194 3.11203C7.69194 3.08103 7.71694 3.05603 7.74794 3.05603H13.0909C13.1219 3.05603 13.1469 3.08103 13.1469 3.11203V4.81603C13.1469 4.84703 13.1219 4.87203 13.0909 4.87203H7.74794C7.74058 4.87203 7.7333 4.87058 7.72651 4.86777C7.71971 4.86495 7.71354 4.86083 7.70834 4.85563C7.70314 4.85043 7.69901 4.84425 7.6962 4.83746C7.69339 4.83067 7.69194 4.82338 7.69194 4.81603V3.11203ZM16.6039 16.152C16.6039 16.616 16.2259 16.994 15.7619 16.994H5.07694C4.61294 16.994 4.23594 16.616 4.23594 16.152V5.46703C4.23594 5.00303 4.61294 4.62503 5.07694 4.62503H6.29194V4.81503C6.29194 5.61803 6.94494 6.27103 7.74794 6.27103H13.0909C13.8939 6.27103 14.5469 5.61803 14.5469 4.81503V4.62503H15.7619C16.2259 4.62503 16.6039 5.00303 16.6039 5.46703V16.152Z" fill=""/>
<path d="M9.72967 13.4469C9.55367 13.4469 9.37867 13.3809 9.24267 13.2499L6.81767 10.9009C6.7516 10.837 6.69878 10.7606 6.66222 10.6763C6.62565 10.5919 6.60607 10.5012 6.60458 10.4092C6.6031 10.3173 6.61974 10.226 6.65356 10.1405C6.68737 10.055 6.7377 9.97696 6.80167 9.91091C6.86562 9.84484 6.94195 9.79202 7.02632 9.75546C7.11068 9.71889 7.20142 9.69931 7.29336 9.69783C7.38529 9.69634 7.47662 9.71298 7.56212 9.7468C7.64762 9.78061 7.72563 9.83095 7.79167 9.89491L9.72067 11.7629L13.0377 8.42391C13.3097 8.14991 13.7537 8.14791 14.0277 8.42091C14.3017 8.69291 14.3037 9.13691 14.0307 9.41091L10.2267 13.2399C10.1617 13.3056 10.0842 13.3577 9.99893 13.3933C9.91362 13.4288 9.82209 13.447 9.72967 13.4469Z" fill=""/>
</svg>