<svg xmlns="http://www.w3.org/2000/svg" width="20" height="20" viewBox="0 0 20 20" fill="none">
<path d="M5.45117 3.88892H14.8262C15.6891 3.88892 16.3887 4.58849 16.3887 5.45142V14.8264C16.3887 15.6894 15.6891 16.3889 14.8262 16.3889H5.45117C4.58824 16.3889 3.88867 15.6894 3.88867 14.8264V5.45142C3.88867 4.58849 4.58824 3.88892 5.45117 3.88892Z" fill="#B9E0FF"/>
<path d="M6.6665 6.11108H13.8208V8.51942H13.5044C13.5044 8.51942 12.9006 7.04887 12.1882 6.92053C11.4758 6.79218 10.9806 6.8805 10.9806 6.8805L10.9717 13.0205C10.9717 13.0205 11.1694 13.4355 11.4958 13.465H12.2182V13.8889H8.2696L8.27959 13.4544L8.91236 13.4444C8.91236 13.4444 9.38753 13.2961 9.38753 12.9505C9.38753 12.6055 9.39756 6.92997 9.39756 6.92997C9.39756 6.92997 8.61604 6.82218 8.20999 6.92106C7.8045 7.0194 7.09152 7.61165 6.98289 8.47996L6.6665 8.48996V6.11108Z" fill="#1776FF"/>
</svg>